<svg width="646" height="480" viewBox="0 0 646 480" fill="none" xmlns="http://www.w3.org/2000/svg">
<rect width="646" height="480" fill="white"/>
<path d="M42 123L85.25 128.75L128.5 134.5L164.5 141.5L183.5 147L202 153.5L217.5 159L231.5 165L259.5 180L290.5 201L303 212.5L314.5 228.5L288 212.5L268 201L255 192.5L234.5 183.5L217.5 177L202 170.5L184.5 165L175.5 161.5L164.5 159L149 155.5L132 153.5L111.5 150.5L81.5 147L53.5 144L42 123Z" fill="#6496D1"/>
<path d="M131.254 80.8913L151.754 88.3913L188 103.5L228 121.171L255.768 137.664L277.859 154.725L302.318 178.612L312.181 191.692L321.254 209.891L272 169.5L219 142L181 128L164.5 124.583L140.254 121.171H131.254V80.8913Z" fill="#6496D1"/>
<path d="M203.5 62L216.663 69.3256L240.5 82L266.105 101.343L283.451 117.452L297.636 134.117L313.341 157.448L319.674 170.224L325 192L291 150.5L259 126L236 111.5L225.5 106L214.5 101.343L203.5 98.5V62Z" fill="#6496D1"/>
<path d="M54 143.894H65.3491L77.5 175.5L98 233.5L74 186L54 143.894Z" fill="#6496D1"/>
<path d="M551 99L568.5 86L547.5 135.5L516.5 203.5L536.5 145L551 99Z" fill="#6496D1"/>
<path d="M300.5 235.786L325.5 241.286L352 243.286L375.5 240.286L395.625 229L390.5 237.786L379 245.286L355.5 251.286L329.5 248.286L300.5 235.786Z" fill="#6496D1"/>
<path d="M75.2514 327.273L86.1484 362.962H86.5529L97.4499 327.273H110.631L94.1903 376H78.511L62.0703 327.273H75.2514ZM127.655 327.273V376H115.877V327.273H127.655ZM135.048 376V327.273H155.177C158.825 327.273 161.974 327.931 164.622 329.248C167.287 330.548 169.341 332.42 170.785 334.863C172.228 337.289 172.95 340.168 172.95 343.499C172.95 346.878 172.212 349.749 170.737 352.112C169.262 354.46 167.168 356.252 164.456 357.489C161.744 358.711 158.532 359.321 154.82 359.321H142.091V350.042H152.631C154.407 350.042 155.891 349.812 157.08 349.352C158.286 348.876 159.198 348.163 159.816 347.211C160.435 346.243 160.744 345.006 160.744 343.499C160.744 341.992 160.435 340.747 159.816 339.764C159.198 338.765 158.286 338.019 157.08 337.527C155.875 337.02 154.392 336.766 152.631 336.766H146.826V376H135.048ZM162.481 353.73L174.615 376H161.767L149.871 353.73H162.481ZM177.815 336.837V327.273H219V336.837H204.225V376H192.614V336.837H177.815ZM254.231 327.273H265.985V358.703C265.985 362.335 265.12 365.5 263.392 368.196C261.663 370.877 259.252 372.955 256.159 374.43C253.066 375.889 249.473 376.619 245.381 376.619C241.241 376.619 237.624 375.889 234.531 374.43C231.438 372.955 229.035 370.877 227.322 368.196C225.609 365.5 224.752 362.335 224.752 358.703V327.273H236.53V357.68C236.53 359.361 236.894 360.86 237.624 362.176C238.37 363.493 239.409 364.524 240.741 365.27C242.073 366.015 243.62 366.388 245.381 366.388C247.141 366.388 248.68 366.015 249.996 365.27C251.329 364.524 252.368 363.493 253.113 362.176C253.859 360.86 254.231 359.361 254.231 357.68V327.273ZM283.907 376H271.249L287.69 327.273H303.369L319.81 376H307.152L295.708 339.55H295.327L283.907 376ZM282.217 356.823H308.675V365.769H282.217V356.823ZM325.056 376V327.273H336.833V366.435H357.105V376H325.056ZM377.596 376V327.273H397.725C401.373 327.273 404.521 327.931 407.17 329.248C409.835 330.548 411.889 332.42 413.333 334.863C414.776 337.289 415.498 340.168 415.498 343.499C415.498 346.878 414.76 349.749 413.285 352.112C411.81 354.46 409.716 356.252 407.004 357.489C404.291 358.711 401.079 359.321 397.368 359.321H384.639V350.042H395.179C396.955 350.042 398.438 349.812 399.628 349.352C400.834 348.876 401.746 348.163 402.364 347.211C402.983 346.243 403.292 345.006 403.292 343.499C403.292 341.992 402.983 340.747 402.364 339.764C401.746 338.765 400.834 338.019 399.628 337.527C398.423 337.02 396.939 336.766 395.179 336.766H389.373V376H377.596ZM405.029 353.73L417.163 376H404.315L392.419 353.73H405.029ZM467.949 351.636C467.949 356.998 466.917 361.542 464.855 365.27C462.793 368.997 460.002 371.828 456.48 373.763C452.975 375.699 449.041 376.666 444.679 376.666C440.301 376.666 436.36 375.691 432.854 373.74C429.349 371.789 426.565 368.957 424.503 365.246C422.457 361.518 421.434 356.982 421.434 351.636C421.434 346.275 422.457 341.731 424.503 338.003C426.565 334.276 429.349 331.444 432.854 329.509C436.36 327.574 440.301 326.607 444.679 326.607C449.041 326.607 452.975 327.574 456.48 329.509C460.002 331.444 462.793 334.276 464.855 338.003C466.917 341.731 467.949 346.275 467.949 351.636ZM455.909 351.636C455.909 348.464 455.457 345.783 454.553 343.594C453.665 341.406 452.38 339.748 450.699 338.622C449.033 337.496 447.027 336.933 444.679 336.933C442.348 336.933 440.341 337.496 438.66 338.622C436.978 339.748 435.686 341.406 434.782 343.594C433.893 345.783 433.449 348.464 433.449 351.636C433.449 354.809 433.893 357.489 434.782 359.678C435.686 361.867 436.978 363.525 438.66 364.651C440.341 365.777 442.348 366.34 444.679 366.34C447.027 366.34 449.033 365.777 450.699 364.651C452.38 363.525 453.665 361.867 454.553 359.678C455.457 357.489 455.909 354.809 455.909 351.636ZM520.816 351.636C520.816 356.998 519.785 361.542 517.723 365.27C515.661 368.997 512.869 371.828 509.348 373.763C505.842 375.699 501.909 376.666 497.547 376.666C493.169 376.666 489.227 375.691 485.722 373.74C482.216 371.789 479.432 368.957 477.37 365.246C475.324 361.518 474.301 356.982 474.301 351.636C474.301 346.275 475.324 341.731 477.37 338.003C479.432 334.276 482.216 331.444 485.722 329.509C489.227 327.574 493.169 326.607 497.547 326.607C501.909 326.607 505.842 327.574 509.348 329.509C512.869 331.444 515.661 334.276 517.723 338.003C519.785 341.731 520.816 346.275 520.816 351.636ZM508.777 351.636C508.777 348.464 508.325 345.783 507.42 343.594C506.532 341.406 505.247 339.748 503.566 338.622C501.901 337.496 499.894 336.933 497.547 336.933C495.215 336.933 493.208 337.496 491.527 338.622C489.846 339.748 488.553 341.406 487.649 343.594C486.761 345.783 486.316 348.464 486.316 351.636C486.316 354.809 486.761 357.489 487.649 359.678C488.553 361.867 489.846 363.525 491.527 364.651C493.208 365.777 495.215 366.34 497.547 366.34C499.894 366.34 501.901 365.777 503.566 364.651C505.247 363.525 506.532 361.867 507.42 359.678C508.325 357.489 508.777 354.809 508.777 351.636ZM527.692 327.273H542.277L554.649 357.442H555.22L567.592 327.273H582.177V376H570.709V346.069H570.304L558.598 375.691H551.27L539.564 345.902H539.16V376H527.692V327.273Z" fill="#6496D1"/>
<rect x="60.5" y="288" width="526" height="17" fill="#6496D1"/>
<path d="M60.5 394H586.5V410H60.5V394Z" fill="#6496D1"/>
<path d="M489 62H508L521 62.5L528.5 64L552.5 68.5L568 76L503 116L477 132.5L456.5 144.5L442.5 160L427 177.5L419.5 186.5L414 197L408.5 217L385.5 223.5L353 227V198L359.5 169.5L374.5 139.5L384 125.5L396.5 112L415.5 96L435.5 83L459 72L489 62Z" fill="#6496D1"/>
<path d="M455 125L464 119L474.5 112L495 99L526 85L495 102.5L474 116L464.5 122L454.5 129.5L443.5 139.5L434 148.5L417.5 168L391 211L397 196.5L404.5 182L410 173L415.5 165.5L421.5 157.5L428 150L442 136.5L455 125Z" fill="white"/>
<path d="M416 113L425 107L435.5 100L456 87L503 66.5L456 90.5L435 104L425.5 110L415.5 117.5L404.5 127.5L395 136.5L384 147.5L378.5 156L374 166L370.5 180L363 204.5L365 189L368 178L372 164L376.5 153.5L382.5 145.5L389 138L403 124.5L416 113Z" fill="white"/>
<path d="M421.185 118.123L429.649 112.236L439.523 105.368L458.801 92.6132L507.5 70.5L458.801 96.0472L439.053 109.292L430.119 115.179L420.715 122.538L410.371 132.349L401.437 141.179L389 156L385 165.5L378.5 179.5L370 209L372 191L377.5 175L380.5 166.5L383.5 159L389.682 150.009L395.795 142.651L408.96 129.406L421.185 118.123Z" fill="white"/>
<path d="M431.338 119.772L439.682 113.93L449.417 107.115L468.424 94.4585L512 74.5L468.424 97.866L448.954 111.009L440.146 116.851L430.874 124.153L420.675 133.889L411.868 142.651L396.569 161.636L377.5 209L381.5 189.5L386 177.5L391 167L394.715 159.202L400.278 151.413L406.305 144.111L419.285 130.968L431.338 119.772Z" fill="white"/>
<path d="M438.844 124.251L447.032 118.477L456.586 111.74L475.237 99.2291L518 79.5L475.237 102.597L456.131 115.59L447.487 121.364L438.389 128.582L428.38 138.206L419.737 146.868L404.725 165.634L384 208.5L388.354 194.167L394.643 179.339L398.513 171.431L402.905 163.228L408.364 155.529L414.278 148.311L427.016 135.319L438.844 124.251Z" fill="white"/>
</svg>
